<svg width="37" height="37" xmlns="http://www.w3.org/2000/svg" xmlns:xlink="http://www.w3.org/1999/xlink" xml:space="preserve" overflow="hidden"><g transform="translate(157 -264)"><path d="M-139.502 285.275-138.885 287.164-139.232 287.51-141.121 286.894C-141.121 286.894-141.121 286.894-141.159 286.855-141.583 286.431-141.583 285.737-141.121 285.314-140.658 284.89-139.965 284.851-139.502 285.275ZM-152.452 276.796-141.583 287.665-137.344 289.052-138.731 284.851-149.6 273.944-152.452 276.796Z"/><path d="M-154.88 273.211C-155.189 273.558-155.15 274.098-154.803 274.406L-153.261 275.948-150.448 273.134-151.99 271.593C-151.99 271.593-151.99 271.593-151.99 271.593-152.336 271.246-152.915 271.246-153.223 271.593L-154.803 273.173C-154.842 273.173-154.842 273.211-154.88 273.211Z"/><path d="M-130.021 287.51-136.65 287.51-136.11 289.052-130.021 289.052Z"/><path d="M-130.021 278.26-143.665 278.26-142.123 279.802-130.021 279.802Z"/><path d="M-149.292 281.575-149.292 296.375C-149.292 297.223-148.598 297.917-147.75 297.917L-126.938 297.917C-126.09 297.917-125.396 297.223-125.396 296.375L-125.396 270.938C-125.396 270.09-126.09 269.396-126.938 269.396L-133.49 269.396-133.49 268.625C-133.49 267.777-134.183 267.083-135.031 267.083L-139.656 267.083C-140.504 267.083-141.198 267.777-141.198 268.625L-141.198 269.396-147.75 269.396C-148.598 269.396-149.292 270.09-149.292 270.938L-149.292 272.633-148.868 273.057-148.791 273.134-148.791 273.134-146.979 274.946-146.979 271.708-142.74 271.708-142.74 274.021-131.948 274.021-131.948 271.708-127.708 271.708-127.708 295.604-146.979 295.604-146.979 283.888-149.292 281.575ZM-136.188 269.781C-136.188 270.436-136.689 270.938-137.344 270.938-137.999 270.938-138.5 270.436-138.5 269.781-138.5 269.126-137.999 268.625-137.344 268.625-137.035 268.625-136.727 268.741-136.534 268.972-136.303 269.165-136.188 269.473-136.188 269.781Z"/><path d="M-130.021 282.885-139.04 282.885-137.498 284.427-130.021 284.427Z"/></g></svg>