<svg width="38" height="38" xmlns="http://www.w3.org/2000/svg" xmlns:xlink="http://www.w3.org/1999/xlink" xml:space="preserve" overflow="hidden"><g transform="matrix(1 0 0 1 0 -202)"><path d="M17.9708 223.85 18.6042 225.79 18.2479 226.146 16.3083 225.512C16.3083 225.512 16.3083 225.512 16.2687 225.473 15.8333 225.038 15.8333 224.325 16.3083 223.89 16.7833 223.454 17.4958 223.415 17.9708 223.85ZM4.67083 215.142 15.8333 226.304 20.1875 227.729 18.7625 223.415 7.6 212.212 4.67083 215.142Z"/><path d="M2.17708 211.46C1.86042 211.817 1.9 212.371 2.25625 212.688L3.83958 214.271 6.72917 211.381 5.14583 209.798C5.14583 209.798 5.14583 209.798 5.14583 209.798 4.78958 209.442 4.19583 209.442 3.87917 209.798L2.25625 211.421C2.21667 211.421 2.21667 211.46 2.17708 211.46Z"/><path d="M27.7083 226.146 20.9 226.146 21.4542 227.729 27.7083 227.729Z"/><path d="M27.7083 216.646 13.6958 216.646 15.2792 218.229 27.7083 218.229Z"/><path d="M7.91667 220.05 7.91667 235.25C7.91667 236.121 8.62917 236.833 9.5 236.833L30.875 236.833C31.7458 236.833 32.4583 236.121 32.4583 235.25L32.4583 209.125C32.4583 208.254 31.7458 207.542 30.875 207.542L24.1458 207.542 24.1458 206.75C24.1458 205.879 23.4333 205.167 22.5625 205.167L17.8125 205.167C16.9417 205.167 16.2292 205.879 16.2292 206.75L16.2292 207.542 9.5 207.542C8.62917 207.542 7.91667 208.254 7.91667 209.125L7.91667 210.867 8.35208 211.302 8.43125 211.381 8.43125 211.381 10.2917 213.242 10.2917 209.917 14.6458 209.917 14.6458 212.292 25.7292 212.292 25.7292 209.917 30.0833 209.917 30.0833 234.458 10.2917 234.458 10.2917 222.425 7.91667 220.05ZM21.375 207.938C21.375 208.61 20.8604 209.125 20.1875 209.125 19.5146 209.125 19 208.61 19 207.938 19 207.265 19.5146 206.75 20.1875 206.75 20.5042 206.75 20.8208 206.869 21.0187 207.106 21.2563 207.304 21.375 207.621 21.375 207.938Z"/><path d="M27.7083 221.396 18.4458 221.396 20.0292 222.979 27.7083 222.979Z"/></g></svg>