<svg width="37" height="38" xmlns="http://www.w3.org/2000/svg" xmlns:xlink="http://www.w3.org/1999/xlink" xml:space="preserve" overflow="hidden"><g transform="translate(3 -302)"><path d="M17.4979 21.275 18.1146 23.1635 17.7677 23.5104 15.8792 22.8937C15.8792 22.8937 15.8792 22.8937 15.8406 22.8552 15.4167 22.4312 15.4167 21.7375 15.8792 21.3135 16.3417 20.8896 17.0354 20.851 17.4979 21.275ZM4.54792 12.7958 15.4167 23.6646 19.6562 25.0521 18.2687 20.851 7.4 9.94375 4.54792 12.7958Z" transform="matrix(1 0 0 1.02703 -3 302)"/><path d="M2.11979 9.21146C1.81146 9.55833 1.85 10.0979 2.19687 10.4062L3.73854 11.9479 6.55208 9.13437 5.01042 7.59271C5.01042 7.59271 5.01042 7.59271 5.01042 7.59271 4.66354 7.24583 4.08542 7.24583 3.77708 7.59271L2.19687 9.17292C2.15833 9.17292 2.15833 9.21146 2.11979 9.21146Z" transform="matrix(1 0 0 1.02703 -3 302)"/><path d="M26.9792 23.5104 20.35 23.5104 20.8896 25.0521 26.9792 25.0521Z" transform="matrix(1 0 0 1.02703 -3 302)"/><path d="M26.9792 14.2604 13.3354 14.2604 14.8771 15.8021 26.9792 15.8021Z" transform="matrix(1 0 0 1.02703 -3 302)"/><path d="M7.70833 17.575 7.70833 32.375C7.70833 33.2229 8.40208 33.9167 9.25 33.9167L30.0625 33.9167C30.9104 33.9167 31.6042 33.2229 31.6042 32.375L31.6042 6.9375C31.6042 6.08958 30.9104 5.39583 30.0625 5.39583L23.5104 5.39583 23.5104 4.625C23.5104 3.77708 22.8167 3.08333 21.9688 3.08333L17.3438 3.08333C16.4958 3.08333 15.8021 3.77708 15.8021 4.625L15.8021 5.39583 9.25 5.39583C8.40208 5.39583 7.70833 6.08958 7.70833 6.9375L7.70833 8.63333 8.13229 9.05729 8.20937 9.13437 8.20937 9.13437 10.0208 10.9458 10.0208 7.70833 14.2604 7.70833 14.2604 10.0208 25.0521 10.0208 25.0521 7.70833 29.2917 7.70833 29.2917 31.6042 10.0208 31.6042 10.0208 19.8875 7.70833 17.575ZM20.8125 5.78125C20.8125 6.43646 20.3115 6.9375 19.6562 6.9375 19.001 6.9375 18.5 6.43646 18.5 5.78125 18.5 5.12604 19.001 4.625 19.6562 4.625 19.9646 4.625 20.2729 4.74062 20.4656 4.97187 20.6969 5.16458 20.8125 5.47292 20.8125 5.78125Z" transform="matrix(1 0 0 1.02703 -3 302)"/><path d="M26.9792 18.8854 17.9604 18.8854 19.5021 20.4271 26.9792 20.4271Z" transform="matrix(1 0 0 1.02703 -3 302)"/></g></svg>